Coordinates
version=1
nRows=27
nColumns=12
inDegrees=yes

Units are S.I. units (second, meters, Newtons, ...)
Angles are in degrees

endheader
time	SC_y	SC_z	SC_x	AC_y	AC_z	AC_x	GH_y	GH_z	GH_yy	EL_x	PS_y
       0.0              -48.67          18.61          44.12          47.74          -16.0           17.2         -94.17          8.282          38.49           35.8           34.2
   0.04692              -48.67          18.61          44.13          47.75          -16.0           17.2         -94.17          8.293          38.48           35.8          34.21
   0.09384              -48.67          18.61          44.13          47.75          -16.0           17.2         -94.18          8.305          38.47           35.8          34.23
    0.1408              -48.67           18.6          44.14          47.75          -16.0           17.2         -94.19          8.318          38.46          35.79          34.25
    0.1877              -48.68           18.6          44.14          47.76         -15.99           17.2         -94.19          8.332          38.45          35.79          34.27
    0.2346              -48.68           18.6          44.15          47.76         -15.99           17.2          -94.2          8.346          38.44          35.79          34.29
    0.2815              -48.68           18.6          44.15          47.76         -15.99          17.19         -94.21          8.362          38.43          35.78          34.32
    0.3284              -48.68           18.6          44.16          47.77         -15.99          17.19         -94.22          8.378          38.42          35.78          34.34
    0.3754              -48.68           18.6          44.17          47.77         -15.99          17.19         -94.23          8.396           38.4          35.77          34.37
    0.4223              -48.68           18.6          44.18          47.78         -15.98          17.19         -94.24          8.415          38.39          35.77           34.4
    0.4692              -48.69           18.6          44.18          47.78         -15.98          17.19         -94.25          8.435          38.37          35.76          34.43
    0.5161              -48.69           18.6          44.19          47.79         -15.98          17.19         -94.26          8.457          38.36          35.76          34.46
     0.563              -48.69           18.6           44.2          47.79         -15.97          17.19         -94.27          8.481          38.34          35.75           34.5
      0.61              -48.69           18.6          44.21           47.8         -15.97          17.19         -94.28          8.506          38.32          35.75          34.53
    0.6569              -48.69           18.6          44.23           47.8         -15.97          17.19          -94.3          8.534           38.3          35.74          34.58
    0.7038               -48.7           18.6          44.24          47.81         -15.96          17.19         -94.31          8.564          38.28          35.73          34.62
    0.7507               -48.7           18.6          44.25          47.82         -15.96          17.18         -94.33          8.596          38.25          35.72          34.67
    0.7976               -48.7           18.6          44.27          47.83         -15.95          17.18         -94.35          8.632          38.23          35.71          34.72
    0.8446              -48.71           18.6          44.28          47.84         -15.95          17.18         -94.37          8.671           38.2           35.7          34.78
    0.8915              -48.71           18.6           44.3          47.85         -15.94          17.18         -94.39          8.713          38.16          35.69          34.84
    0.9384              -48.72           18.6          44.32          47.86         -15.93          17.18         -94.41           8.76          38.13          35.68          34.91
    0.9853              -48.72          18.59          44.34          47.87         -15.93          17.17         -94.44          8.811          38.09          35.67          34.99
     1.032              -48.73          18.59          44.37          47.89         -15.92          17.17         -94.47          8.867          38.05          35.65          35.07
     1.079              -48.73          18.59          44.39           47.9         -15.91          17.17          -94.5           8.93           38.0          35.64          35.17
     1.126              -48.74          18.59          44.42          47.92          -15.9          17.16         -94.54            9.0          37.95          35.62          35.27
     1.173              -48.74          18.59          44.45          47.94         -15.89          17.16         -94.58          9.078          37.89           35.6          35.39
      1.22              -48.75          18.59          44.49          47.96         -15.88          17.16         -94.62          9.165          37.82          35.58          35.52
